# 3ds Max Wavefront OBJ Exporter v0.99 - (c)2007 guruware
# File Created: 08.07.2025 05:28:46

#
# object Plane001
#

v  0.0000 10.0000 0.0000
v  0.0000 5.0000 0.0000
v  0.0000 0.0000 0.0000
v  10.0000 0.0000 0.0000
v  10.0000 10.0000 0.0000
# 5 vertices

vn 0.0000 0.0000 1.0000
# 1 vertex normals

o Plane001
g Plane001
f 1//1 2//1 3//1 4//1 5//1 
# 1 polygons

#
# object Plane002
#

v  20.0000 10.0000 0.0000
v  20.0000 0.0000 0.0000
v  30.0000 0.0000 0.0000
v  25.0000 5.0000 0.0000
v  38.1006 5.9516 0.0000
v  33.1006 10.9516 0.0000
v  28.1006 15.9516 0.0000
# 7 vertices

vn 0.0000 0.0000 1.0000
# 1 vertex normals

o Plane002
g Plane002
f 6//2 7//2 8//2 9//2 
f 9//2 8//2 10//2 11//2 
f 6//2 9//2 11//2 12//2 
# 3 polygons

#
# object Plane003
#

v  60.0000 10.0000 0.0000
v  60.0000 0.0000 0.0000
v  70.0000 0.0000 0.0000
v  70.0000 5.0000 0.0000
v  70.0000 10.0000 0.0000
# 5 vertices

vn 0.0000 0.0000 1.0000
# 1 vertex normals

o Plane003
g Plane003
f 13//3 14//3 15//3 16//3 17//3 
# 1 polygons

#
# object Plane004
#

v  -20.0000 0.4006 0.0000
v  -10.0000 0.4006 0.0000
# 2 vertices

vn 1.0000 0.0000 0.0000
# 1 vertex normals

o Plane004
g Plane004
f 18//4 18//4 19//4 19//4 
# 1 polygons

#
# object Plane005
#

v  40.0000 10.0000 0.0000
v  40.0000 0.0000 0.0000
v  50.0000 0.0000 0.0000
v  51.0000 6.0000 0.0000
v  52.0000 12.0000 0.0000
# 5 vertices

vn 0.0000 0.0000 -1.0000
vn 0.0000 0.0000 1.0000
vn 1.0000 0.0000 0.0000
# 3 vertex normals

o Plane005
g Plane005
f 20//5 21//6 22//6 20//7 
f 20//7 22//6 23//6 24//6 
f 20//5 20//7 24//6 
# 2 polygons - 1 triangles

#
# object Plane006
#

v  3.3679 -20.4396 0.0000
v  13.3679 -20.4396 0.0000
v  13.3679 -10.4396 0.0000
v  3.3679 -10.4396 0.0000
v  23.3679 -20.4396 0.0000
v  23.3679 -10.4396 0.0000
# 6 vertices

vn 0.0000 0.0000 1.0000
# 1 vertex normals

o Plane006
g Plane006
f 25//8 26//8 27//8 28//8 
f 27//8 26//8 29//8 30//8 
# 2 polygons

#
# object Plane007
#

v  100.0000 10.0000 0.0000
v  105.0000 5.0000 0.0000
v  110.0000 -0.0000 0.0000
v  110.0000 10.0000 0.0000
# 4 vertices

vn 0.0000 0.0000 1.0000
# 1 vertex normals

o Plane007
g Plane007
f 31//9 32//9 33//9 34//9 
# 1 polygons

#
# object Plane008
#

v  87.0268 -5.9943 0.0000
v  87.0268 -15.9943 0.0000
v  97.0268 -15.9943 0.0000
v  97.0268 -10.9943 0.0000
v  97.0268 -5.9943 0.0000
# 5 vertices

vn 0.0000 0.0000 1.0000
# 1 vertex normals

o Plane008
g Plane008
f 35//10 36//10 37//10 38//10 39//10 
# 1 polygons

#
# object Plane009
#

v  -40.0000 10.4006 0.0000
v  -40.0000 0.4006 0.0000
v  -30.0000 0.4006 0.0000
v  -30.0000 10.4006 0.0000
# 4 vertices

vn 0.0000 0.0000 1.0000
# 1 vertex normals

o Plane009
g Plane009
f 40//11 41//11 42//11 43//11 
# 1 polygons

